<svg width="19" height="20"
     viewBox="0 0 19 20" fill="none"
     xmlns="http://www.w3.org/2000/svg">
    <path d="M7.27 2.48977C5.64 10.0298 11.02 14.8998 14.93 16.2898C13.54 17.3798 11.81 17.9998 10 17.9998C5.59 17.9998 2 14.4098 2 9.99977C2 6.54977 4.2 3.59977 7.27 2.48977ZM9.99 0.00976562C4.4 0.00976562 0 4.53977 0 9.99977C0 15.5198 4.48 19.9998 10 19.9998C13.71 19.9998 16.93 17.9798 18.66 14.9798C11.15 14.7298 6.57 6.54977 10.34 0.00976562C10.22 0.00976562 10.11 0.00976562 9.99 0.00976562Z"
          fill="#323232"/>
</svg>
